<svg width="34" height="34" viewBox="0 0 34 34" fill="none" xmlns="http://www.w3.org/2000/svg">
<path d="M2 12H3.74001C4.82001 12 5.67 12.93 5.58 14L4.75 23.96C4.61 25.59 5.89999 26.99 7.53999 26.99H18.19C19.63 26.99 20.89 25.81 21 24.38L21.54 16.88C21.66 15.22 20.4 13.87 18.73 13.87H5.82001" stroke="#444444" stroke-width="1.5" stroke-miterlimit="10" stroke-linecap="round" stroke-linejoin="round"/>
<path d="M16.25 32C16.9404 32 17.5 31.4404 17.5 30.75C17.5 30.0596 16.9404 29.5 16.25 29.5C15.5596 29.5 15 30.0596 15 30.75C15 31.4404 15.5596 32 16.25 32Z" stroke="#444444" stroke-width="1.5" stroke-miterlimit="10" stroke-linecap="round" stroke-linejoin="round"/>
<path d="M8.25 32C8.94036 32 9.5 31.4404 9.5 30.75C9.5 30.0596 8.94036 29.5 8.25 29.5C7.55964 29.5 7 30.0596 7 30.75C7 31.4404 7.55964 32 8.25 32Z" stroke="#444444" stroke-width="1.5" stroke-miterlimit="10" stroke-linecap="round" stroke-linejoin="round"/>
<path d="M9 18H21" stroke="#444444" stroke-width="1.5" stroke-miterlimit="10" stroke-linecap="round" stroke-linejoin="round"/>
<rect x="14" width="20" height="20" rx="10" fill="#111111"/>
<path d="M21.1337 7.412C21.1817 6.668 21.4657 6.088 21.9857 5.672C22.5137 5.256 23.1857 5.048 24.0017 5.048C24.5617 5.048 25.0457 5.148 25.4537 5.348C25.8617 5.548 26.1697 5.82 26.3777 6.164C26.5857 6.508 26.6897 6.896 26.6897 7.328C26.6897 7.824 26.5577 8.248 26.2937 8.6C26.0297 8.952 25.7137 9.188 25.3457 9.308V9.356C25.8177 9.5 26.1857 9.764 26.4497 10.148C26.7137 10.524 26.8457 11.008 26.8457 11.6C26.8457 12.072 26.7377 12.492 26.5217 12.86C26.3057 13.228 25.9857 13.52 25.5617 13.736C25.1377 13.944 24.6297 14.048 24.0377 14.048C23.1737 14.048 22.4617 13.828 21.9017 13.388C21.3497 12.94 21.0537 12.3 21.0137 11.468H22.3337C22.3657 11.892 22.5297 12.24 22.8257 12.512C23.1217 12.776 23.5217 12.908 24.0257 12.908C24.5137 12.908 24.8897 12.776 25.1537 12.512C25.4177 12.24 25.5497 11.892 25.5497 11.468C25.5497 10.908 25.3697 10.512 25.0097 10.28C24.6577 10.04 24.1137 9.92 23.3777 9.92H23.0657V8.792H23.3897C24.0377 8.784 24.5297 8.676 24.8657 8.468C25.2097 8.26 25.3817 7.932 25.3817 7.484C25.3817 7.1 25.2577 6.796 25.0097 6.572C24.7617 6.34 24.4097 6.224 23.9537 6.224C23.5057 6.224 23.1577 6.34 22.9097 6.572C22.6617 6.796 22.5137 7.076 22.4657 7.412H21.1337Z" fill="white"/>
</svg>
