<svg width="110" height="23" viewBox="0 0 110 23" fill="none" xmlns="http://www.w3.org/2000/svg">
<path d="M11.2895 0.157959L14.4879 7.04516L22.0264 7.95881L16.4647 13.129L17.9253 20.5808L11.2895 16.889L4.6537 20.5808L6.11428 13.129L0.552547 7.95881L8.09104 7.04516L11.2895 0.157959Z" fill="#111111"/>
<path d="M40.3559 0.157959L43.5544 7.04516L51.0928 7.95881L45.5311 13.129L46.9917 20.5808L40.3559 16.889L33.7201 20.5808L35.1807 13.129L29.619 7.95881L37.1574 7.04516L40.3559 0.157959Z" fill="#111111"/>
<path d="M69.4204 0.157959L72.6188 7.04516L80.1573 7.95881L74.5956 13.129L76.0561 20.5808L69.4204 16.889L62.7846 20.5808L64.2451 13.129L58.6834 7.95881L66.2219 7.04516L69.4204 0.157959Z" fill="#111111"/>
<path d="M98.4868 0.157959L101.685 7.04516L109.224 7.95881L103.662 13.129L105.123 20.5808L98.4868 16.889L91.851 20.5808L93.3116 13.129L87.7498 7.95881L95.2883 7.04516L98.4868 0.157959Z" fill="#111111"/>
</svg>
