<svg width="52" height="52" viewBox="0 0 52 52" fill="none" xmlns="http://www.w3.org/2000/svg">
<circle cx="26.3647" cy="25.893" r="25.0457" stroke="#111111" stroke-width="1.06577"/>
<path d="M22.4028 34.6867C30.4467 34.6867 34.847 28.0216 34.847 22.2518C34.847 22.0653 34.847 21.8761 34.839 21.6896C35.6957 21.0694 36.4351 20.3016 37.0225 19.4221C36.2223 19.775 35.3742 20.0075 34.506 20.1122C35.4206 19.5655 36.1056 18.7054 36.4337 17.6916C35.5744 18.2007 34.6339 18.558 33.6533 18.748C32.9941 18.046 32.1218 17.5809 31.1715 17.4248C30.2212 17.2687 29.246 17.4304 28.3969 17.8847C27.5477 18.339 26.8721 19.0606 26.4746 19.9378C26.0771 20.815 25.98 21.7987 26.1982 22.7367C24.4594 22.6495 22.7582 22.1978 21.2052 21.4108C19.6521 20.6238 18.2818 19.5192 17.1831 18.1685C16.6254 19.1318 16.4552 20.2713 16.7071 21.3555C16.9589 22.4398 17.614 23.3875 18.5393 24.0063C17.846 23.9828 17.1678 23.7966 16.5597 23.4628V23.5227C16.5608 24.5318 16.9104 25.5096 17.5493 26.2907C18.1882 27.0719 19.0772 27.6085 20.066 27.8098C19.6907 27.9132 19.303 27.9647 18.9137 27.963C18.6392 27.9638 18.3653 27.9384 18.0957 27.8871C18.3752 28.7557 18.9194 29.5152 19.6521 30.0592C20.3847 30.6032 21.2692 30.9043 22.1816 30.9205C20.6316 32.1379 18.717 32.7982 16.7462 32.7949C16.3989 32.7964 16.0518 32.7764 15.707 32.735C17.7074 34.0103 20.0305 34.6874 22.4028 34.6867Z" fill="#111111"/>
</svg>
