<svg width="52" height="52" viewBox="0 0 52 52" fill="none" xmlns="http://www.w3.org/2000/svg">
<circle cx="25.6294" cy="25.8928" r="25.0457" stroke="#111111" stroke-width="1.06577"/>
<path d="M25.6295 17.0112C28.0426 17.0112 28.3437 17.0201 29.2904 17.0645C30.2363 17.1089 30.8802 17.2572 31.4468 17.4775C32.033 17.7031 32.5268 18.0086 33.0206 18.5015C33.4723 18.9455 33.8217 19.4826 34.0447 20.0753C34.264 20.6411 34.4133 21.2859 34.4577 22.2317C34.4994 23.1785 34.511 23.4796 34.511 25.8927C34.511 28.3058 34.5021 28.6069 34.4577 29.5536C34.4133 30.4995 34.264 31.1434 34.0447 31.71C33.8223 32.3031 33.4728 32.8403 33.0206 33.2838C32.5765 33.7353 32.0395 34.0847 31.4468 34.3079C30.8811 34.5272 30.2363 34.6764 29.2904 34.7208C28.3437 34.7626 28.0426 34.7741 25.6295 34.7741C23.2164 34.7741 22.9153 34.7653 21.9686 34.7208C21.0227 34.6764 20.3788 34.5272 19.8121 34.3079C19.2192 34.0854 18.682 33.7358 18.2384 33.2838C17.7866 32.8399 17.4372 32.3028 17.2143 31.71C16.9941 31.1443 16.8457 30.4995 16.8013 29.5536C16.7596 28.6069 16.748 28.3058 16.748 25.8927C16.748 23.4796 16.7569 23.1785 16.8013 22.2317C16.8457 21.285 16.9941 20.642 17.2143 20.0753C17.4366 19.4822 17.7861 18.945 18.2384 18.5015C18.6821 18.0497 19.2192 17.7002 19.8121 17.4775C20.3788 17.2572 21.0218 17.1089 21.9686 17.0645C22.9153 17.0228 23.2164 17.0112 25.6295 17.0112ZM25.6295 21.452C24.4517 21.452 23.3222 21.9198 22.4894 22.7526C21.6566 23.5854 21.1888 24.7149 21.1888 25.8927C21.1888 27.0704 21.6566 28.2 22.4894 29.0327C23.3222 29.8655 24.4517 30.3334 25.6295 30.3334C26.8073 30.3334 27.9368 29.8655 28.7696 29.0327C29.6024 28.2 30.0702 27.0704 30.0702 25.8927C30.0702 24.7149 29.6024 23.5854 28.7696 22.7526C27.9368 21.9198 26.8073 21.452 25.6295 21.452ZM31.4024 21.2299C31.4024 20.9355 31.2855 20.6531 31.0773 20.4449C30.8691 20.2367 30.5867 20.1197 30.2923 20.1197C29.9978 20.1197 29.7154 20.2367 29.5072 20.4449C29.299 20.6531 29.1821 20.9355 29.1821 21.2299C29.1821 21.5244 29.299 21.8067 29.5072 22.0149C29.7154 22.2231 29.9978 22.3401 30.2923 22.3401C30.5867 22.3401 30.8691 22.2231 31.0773 22.0149C31.2855 21.8067 31.4024 21.5244 31.4024 21.2299ZM25.6295 23.2282C26.3362 23.2282 27.0139 23.509 27.5135 24.0086C28.0132 24.5083 28.2939 25.186 28.2939 25.8927C28.2939 26.5993 28.0132 27.277 27.5135 27.7767C27.0139 28.2764 26.3362 28.5571 25.6295 28.5571C24.9228 28.5571 24.2451 28.2764 23.7455 27.7767C23.2458 27.277 22.9651 26.5993 22.9651 25.8927C22.9651 25.186 23.2458 24.5083 23.7455 24.0086C24.2451 23.509 24.9228 23.2282 25.6295 23.2282Z" fill="#111111"/>
</svg>
