<svg width="24" height="24" viewBox="0 0 24 24" fill="none" xmlns="http://www.w3.org/2000/svg">
<rect x="0.5" y="0.5" width="23" height="23" rx="11.5" fill="white"/>
<rect x="0.5" y="0.5" width="23" height="23" rx="11.5" stroke="#E5E7EB"/>
<path fill-rule="evenodd" clip-rule="evenodd" d="M12 7C12.1206 7 12.2362 7.04789 12.3214 7.13313C12.4067 7.21838 12.4545 7.33399 12.4545 7.45455V11.5455H16.5455C16.666 11.5455 16.7816 11.5933 16.8669 11.6786C16.9521 11.7638 17 11.8794 17 12C17 12.1206 16.9521 12.2362 16.8669 12.3214C16.7816 12.4067 16.666 12.4545 16.5455 12.4545H12.4545V16.5455C12.4545 16.666 12.4067 16.7816 12.3214 16.8669C12.2362 16.9521 12.1206 17 12 17C11.8794 17 11.7638 16.9521 11.6786 16.8669C11.5933 16.7816 11.5455 16.666 11.5455 16.5455V12.4545H7.45455C7.33399 12.4545 7.21838 12.4067 7.13313 12.3214C7.04789 12.2362 7 12.1206 7 12C7 11.8794 7.04789 11.7638 7.13313 11.6786C7.21838 11.5933 7.33399 11.5455 7.45455 11.5455H11.5455V7.45455C11.5455 7.33399 11.5933 7.21838 11.6786 7.13313C11.7638 7.04789 11.8794 7 12 7Z" fill="#111111"/>
</svg>
