<svg width="12" height="12" viewBox="0 0 12 12" fill="none" xmlns="http://www.w3.org/2000/svg">
<path d="M9.5 4.5C9.5 5.225 9.285 5.89001 8.915 6.44501C8.375 7.24501 7.52 7.81 6.525 7.955C6.355 7.985 6.18 8 6 8C5.82 8 5.645 7.985 5.475 7.955C4.48 7.81 3.625 7.24501 3.085 6.44501C2.715 5.89001 2.5 5.225 2.5 4.5C2.5 2.565 4.065 1 6 1C7.935 1 9.5 2.565 9.5 4.5Z" stroke="#111111" stroke-linecap="round" stroke-linejoin="round"/>
<path d="M10.6236 9.235L9.79857 9.42999C9.61357 9.47499 9.46857 9.615 9.42857 9.8L9.25357 10.535C9.15857 10.935 8.64857 11.055 8.38357 10.74L5.99857 8L3.61357 10.745C3.34857 11.06 2.83857 10.94 2.74357 10.54L2.56857 9.80499C2.52357 9.61999 2.37857 9.475 2.19857 9.435L1.37357 9.24001C0.993575 9.15001 0.858574 8.67499 1.13357 8.39999L3.08357 6.45C3.62357 7.25 4.47857 7.81501 5.47357 7.96001C5.64357 7.99001 5.81857 8.005 5.99857 8.005C6.17857 8.005 6.35357 7.99001 6.52357 7.96001C7.51857 7.81501 8.37357 7.25 8.91357 6.45L10.8636 8.39999C11.1386 8.66999 11.0036 9.145 10.6236 9.235Z" stroke="#111111" stroke-linecap="round" stroke-linejoin="round"/>
<path d="M6.29096 2.99L6.58596 3.58C6.62596 3.66 6.73096 3.74 6.82596 3.755L7.36096 3.845C7.70096 3.9 7.78096 4.15 7.53596 4.395L7.12096 4.80999C7.05096 4.87999 7.01096 5.015 7.03596 5.115L7.15596 5.63C7.25096 6.035 7.03596 6.19499 6.67596 5.97999L6.17596 5.68499C6.08596 5.62999 5.93596 5.62999 5.84596 5.68499L5.34596 5.97999C4.98596 6.18999 4.77096 6.035 4.86596 5.63L4.98596 5.115C5.00596 5.02 4.97096 4.87999 4.90096 4.80999L4.48596 4.395C4.24096 4.15 4.32096 3.905 4.66096 3.845L5.19596 3.755C5.28596 3.74 5.39096 3.66 5.43096 3.58L5.72596 2.99C5.87096 2.67 6.13096 2.67 6.29096 2.99Z" stroke="#111111" stroke-linecap="round" stroke-linejoin="round"/>
</svg>
