<svg width="18" height="18" viewBox="0 0 18 18" fill="none" xmlns="http://www.w3.org/2000/svg">
<path d="M9.67273 16.476C9.27469 16.4772 8.89276 16.3189 8.61223 16.0365L2.73448 10.1603C2.42433 9.85113 2.26533 9.42156 2.29948 8.985L2.67448 4.0605C2.72804 3.31926 3.31904 2.7305 4.06048 2.67975L8.98498 2.30475C9.02398 2.2965 9.06223 2.2965 9.10123 2.2965C9.49847 2.29603 9.87945 2.45425 10.1595 2.736L16.0372 8.6115C16.3187 8.89283 16.4768 9.27445 16.4768 9.67238C16.4768 10.0703 16.3187 10.4519 16.0372 10.7333L10.7332 16.0365C10.4526 16.3187 10.0707 16.477 9.67273 16.476ZM6.49048 4.9905C5.81159 4.9907 5.21748 5.44683 5.04193 6.10262C4.86638 6.75842 5.15317 7.45036 5.74116 7.78969C6.32916 8.12902 7.07176 8.03112 7.55173 7.551L7.55698 7.5465L7.56223 7.54125L7.55623 7.5465C7.98256 7.11642 8.10845 6.47217 7.8754 5.91323C7.64234 5.3543 7.09606 4.99032 6.49048 4.9905Z" fill="#111111"/>
</svg>
