<svg width="57" height="59" viewBox="0 0 57 59" fill="none" xmlns="http://www.w3.org/2000/svg">
<g filter="url(#filter0_d_82_650)">
<circle cx="29" cy="27" r="16" fill="#111111"/>
</g>
<path fill-rule="evenodd" clip-rule="evenodd" d="M28.9983 20.8286C30.1971 20.0648 31.7896 19.8537 33.1654 20.2981C36.1581 21.2708 37.0871 24.5588 36.2561 27.1752C34.974 31.2843 29.4981 34.3494 29.2659 34.478C29.1833 34.5241 29.0919 34.5471 29.0005 34.5471C28.9091 34.5471 28.8184 34.5248 28.7358 34.4795C28.505 34.3524 23.069 31.3326 21.7441 27.1759C21.7433 27.1759 21.7433 27.1752 21.7433 27.1752C20.9117 24.5581 21.8377 21.2693 24.8274 20.2981C26.2312 19.8404 27.7611 20.0417 28.9983 20.8286ZM25.1666 21.3592C22.7475 22.1454 22.14 24.7676 22.7969 26.8356C23.8306 30.0768 27.9144 32.6976 28.9997 33.3463C30.0887 32.6909 34.202 30.0411 35.2025 26.8385C35.8595 24.7684 35.2497 22.1461 32.827 21.3592C31.6532 20.9795 30.2841 21.2106 29.3389 21.9477C29.1413 22.1008 28.867 22.1037 28.668 21.9522C27.6667 21.1935 26.3588 20.9713 25.1666 21.3592Z" fill="#E5E7EB"/>
<defs>
<filter id="filter0_d_82_650" x="0.320755" y="0.735849" width="57.3585" height="57.3585" filterUnits="userSpaceOnUse" color-interpolation-filters="sRGB">
<feFlood flood-opacity="0" result="BackgroundImageFix"/>
<feColorMatrix in="SourceAlpha" type="matrix" values="0 0 0 0 0 0 0 0 0 0 0 0 0 0 0 0 0 0 127 0" result="hardAlpha"/>
<feOffset dy="2.41509"/>
<feGaussianBlur stdDeviation="6.33962"/>
<feComposite in2="hardAlpha" operator="out"/>
<feColorMatrix type="matrix" values="0 0 0 0 0 0 0 0 0 0 0 0 0 0 0 0 0 0 0.1 0"/>
<feBlend mode="normal" in2="BackgroundImageFix" result="effect1_dropShadow_82_650"/>
<feBlend mode="normal" in="SourceGraphic" in2="effect1_dropShadow_82_650" result="shape"/>
</filter>
</defs>
</svg>
